<?xml version="1.0" encoding="UTF-8"?>
<svg version="1.1" xmlns="http://www.w3.org/2000/svg" width="500" height="500">
<path d="M0 0 C0.83848804 1.45537568 1.67063934 2.91440373 2.5 4.375 C2.9640625 5.18710938 3.428125 5.99921875 3.90625 6.8359375 C5 9 5 9 5 11 C4.10796875 11.03738281 3.2159375 11.07476562 2.296875 11.11328125 C0.54117188 11.21189453 0.54117188 11.21189453 -1.25 11.3125 C-2.41015625 11.37050781 -3.5703125 11.42851562 -4.765625 11.48828125 C-8.25134357 12.03976571 -9.46558958 12.62948365 -12 15 C-12.87127623 17.12321287 -12.87127623 17.12321287 -13.1953125 19.53515625 C-13.35386719 20.42783203 -13.51242188 21.32050781 -13.67578125 22.24023438 C-13.82402344 23.17158203 -13.97226563 24.10292969 -14.125 25.0625 C-14.43966797 26.88679404 -14.75477094 28.71101311 -15.0703125 30.53515625 C-15.29509277 31.8811792 -15.29509277 31.8811792 -15.52441406 33.25439453 C-16.26333989 37.52028769 -17.12616068 41.75998465 -18 46 C-8.16313617 38.53813241 1.44827484 30.82285064 11 23 C14.08089673 25.77280706 15.68775452 28.06326356 17 32 C14.89746067 33.79360702 12.79305667 35.58494119 10.6875 37.375 C10.09259766 37.88289063 9.49769531 38.39078125 8.88476562 38.9140625 C8.30791016 39.40390625 7.73105469 39.89375 7.13671875 40.3984375 C6.60780029 40.84880371 6.07888184 41.29916992 5.53393555 41.76318359 C4.08837533 42.92874273 2.54505544 43.96996304 1 45 C2.485 45.03867188 2.485 45.03867188 4 45.078125 C13.18452009 45.42699256 19.78275259 46.33282834 26.875 52.5 C28.69552243 54.64179109 29.9464524 56.41401954 31 59 C34.64503897 55.40135244 38.16599929 51.71484281 41.625 47.9375 C42.10195313 47.42123047 42.57890625 46.90496094 43.0703125 46.37304688 C46.77535167 42.3763273 46.77535167 42.3763273 50 38 C49.814375 37.38125 49.62875 36.7625 49.4375 36.125 C49 34 49 34 50.9375 30.75 C51.618125 29.8425 52.29875 28.935 53 28 C55.75659158 28.8705026 58.46358277 29.7562648 61.09765625 30.953125 C68.60095472 34.31019343 75.88028081 35.17720179 84 36 C83.5496745 33.08189078 83.09009058 30.16576016 82.625 27.25 C82.49867188 26.425 82.37234375 25.6 82.2421875 24.75 C82.04882812 23.55117187 82.04882812 23.55117187 81.8515625 22.328125 C81.73635254 21.5949707 81.62114258 20.86181641 81.50244141 20.10644531 C80.53303207 16.0422744 79.52976948 14.35317966 76 12 C72.80193335 11.5396236 72.80193335 11.5396236 69.3125 11.375 C68.13300781 11.30023438 66.95351563 11.22546875 65.73828125 11.1484375 C64.83464844 11.09945312 63.93101562 11.05046875 63 11 C64.2125738 7.27566618 65.50859979 3.62197194 67 0 C83.38724818 -0.71594774 83.38724818 -0.71594774 89.51953125 2.44140625 C93.56602958 6.70144011 94.55279634 12.96788018 95.45800781 18.55249023 C95.57709503 19.27217987 95.69618225 19.99186951 95.81887817 20.73336792 C96.20623279 23.09037473 96.58021872 25.44926126 96.953125 27.80859375 C97.2197985 29.4610197 97.4869574 31.11336738 97.75457764 32.76564026 C98.31186724 36.22017853 98.86235706 39.67571583 99.40820312 43.13208008 C100.10609037 47.54681186 100.82225912 51.95834936 101.54375076 56.369277 C102.09900824 59.77822256 102.64376782 63.18878398 103.18550873 66.5999012 C103.44527217 68.22662551 103.70840942 69.85281501 103.97507477 71.47842216 C104.34734314 73.75676034 104.70518308 76.03693651 105.05957031 78.31811523 C105.36909637 80.25834816 105.36909637 80.25834816 105.68487549 82.23777771 C106.13133585 87.56799816 106.11481388 92.23167453 103.1875 96.875 C99.55865439 100.40016431 96.79788678 101.24908366 91.77590942 101.26742554 C90.71889832 101.27595551 89.66188721 101.28448547 88.57284546 101.29327393 C87.41845978 101.29236755 86.2640741 101.29146118 85.07470703 101.29052734 C83.24486267 101.30060318 83.24486267 101.30060318 81.37805176 101.31088257 C78.03494101 101.32662683 74.6920787 101.33323766 71.348948 101.33451414 C69.25901763 101.33593668 67.16911322 101.34020822 65.0791893 101.34550858 C57.78438415 101.3640069 50.48965205 101.37217946 43.19482422 101.37060547 C36.40100213 101.36940417 29.6074978 101.39050446 22.81375611 101.4220928 C16.9758229 101.44826714 11.1379934 101.45897228 5.30000198 101.45769465 C1.81548951 101.45718534 -1.66874054 101.46285073 -5.15319443 101.48405075 C-9.04089457 101.50705883 -12.92816086 101.49790508 -16.81591797 101.48583984 C-17.96625519 101.49707886 -19.11659241 101.50831787 -20.30178833 101.51989746 C-26.50532776 101.47092432 -30.31462171 101.22131865 -35 97 C-39.31418034 91.4333157 -37.75296522 85.57310018 -37 79 C-36.28477176 73.64838226 -35.4727034 68.31418863 -34.63671875 62.98046875 C-34.52127024 62.23896387 -34.40582172 61.49745899 -34.28687477 60.73348427 C-33.67760168 56.82130745 -33.06329742 52.9099615 -32.44458008 48.99926758 C-31.81004203 44.98229658 -31.19280055 40.96286396 -30.57937908 36.94262218 C-30.10066811 33.82602864 -29.6093254 30.71152019 -29.11457253 27.5974369 C-28.88146486 26.11631357 -28.65302076 24.63444787 -28.42951012 23.15184593 C-26.23022547 8.62019352 -26.23022547 8.62019352 -22 3 C-15.55246552 -1.44163486 -7.51777871 -0.26123555 0 0 Z M60 42 C49.07744332 52.17503496 49.07744332 52.17503496 42 64 C57.51 64 73.02 64 89 64 C88.05980894 54.87060564 88.05980894 54.87060564 86 46 C84.70964844 45.87882812 83.41929687 45.75765625 82.08984375 45.6328125 C80.37236253 45.46387992 78.65491642 45.29459013 76.9375 45.125 C76.08994141 45.04636719 75.24238281 44.96773437 74.36914062 44.88671875 C69.35636691 44.38350594 64.79625677 43.54885904 60 42 Z M-20 56 C-24.09337591 72.41630531 -24.09337591 72.41630531 -21.1875 88.125 C-17.72904916 91.08938643 -14.90737694 91.12338736 -10.51879883 91.11352539 C-8.83739555 91.11341209 -8.83739555 91.11341209 -7.12202454 91.11329651 C-5.91257675 91.10813522 -4.70312897 91.10297394 -3.45703125 91.09765625 C-2.21829758 91.0962413 -0.9795639 91.09482635 0.29670715 91.09336853 C3.58631537 91.08871602 6.8758746 91.0797339 10.16546631 91.06866455 C13.52371623 91.05842629 16.88197333 91.05386574 20.24023438 91.04882812 C26.82684212 91.03779145 33.41341705 91.02104767 40 91 C36.26837558 84.17446527 32.26452743 77.65280398 27.9375 71.1875 C27.32583984 70.26001953 26.71417969 69.33253906 26.08398438 68.37695312 C25.48779297 67.48298828 24.89160156 66.58902344 24.27734375 65.66796875 C23.74359131 64.86641357 23.20983887 64.0648584 22.65991211 63.23901367 C20.09711669 59.78212342 18.13390288 57.37796763 14 56 C11.41369776 55.91518227 8.85521944 55.88401771 6.26953125 55.90234375 C5.14390022 55.90446617 5.14390022 55.90446617 3.99552917 55.90663147 C1.6011454 55.9122244 -0.79314453 55.92477556 -3.1875 55.9375 C-4.81184761 55.94251592 -6.43619668 55.94707866 -8.06054688 55.95117188 C-12.04040069 55.96219152 -16.02018444 55.97945127 -20 56 Z M42 74 C44.4342255 80.37710987 46.96544851 86.24926344 52 91 C56.74849081 92.38242248 61.03782087 92.40894189 65.94580078 92.125 C68.12939666 91.99974781 70.30144252 91.96108307 72.48828125 91.9375 C79.46208625 91.75512885 84.33494255 91.50911824 90 87 C91.25069801 84.49860398 91.13302467 82.72607309 91.125 79.9375 C91.12757813 79.03902344 91.13015625 78.14054687 91.1328125 77.21484375 C91.24738223 75.02621107 91.24738223 75.02621107 90 74 C88.49581261 73.90688111 86.98728644 73.88253972 85.48022461 73.88647461 C84.51930405 73.88655014 83.55838348 73.88662567 82.56834412 73.88670349 C81.00117393 73.89444542 81.00117393 73.89444542 79.40234375 73.90234375 C78.33834854 73.9037587 77.27435333 73.90517365 76.17811584 73.90663147 C72.76454917 73.91224936 69.351047 73.92480489 65.9375 73.9375 C63.62955824 73.94251269 61.32161545 73.947076 59.01367188 73.95117188 C53.34242574 73.9622246 47.67121747 73.97898013 42 74 Z " fill="#E76A1B" transform="translate(216,178)"/>
<path d="M0 0 C7.87858417 7.10318749 13.24049564 16.43379834 14.30859375 27.07421875 C14.69120028 37.79879564 12.19083348 46.19367436 8 56 C7.57436768 57.00836914 7.57436768 57.00836914 7.14013672 58.03710938 C-10.62376617 99.41584411 -10.62376617 99.41584411 -22 107 C-28.8821172 107.66601134 -28.8821172 107.66601134 -32.40625 105.56640625 C-36.00823614 102.00239286 -38.19534402 97.98133393 -40.625 93.5625 C-41.14280029 92.63526123 -41.66060059 91.70802246 -42.1940918 90.75268555 C-43.81009203 87.84260823 -45.40685584 84.92264282 -47 82 C-47.49935059 81.09314453 -47.99870117 80.18628906 -48.51318359 79.25195312 C-70.07509769 39.95975959 -70.07509769 39.95975959 -65.8828125 21.7578125 C-62.08676215 9.89935431 -56.1177803 1.46870598 -45.0625 -4.375 C-29.80786259 -11.43626612 -13.59080818 -10.4738606 0 0 Z M-45 18 C-49.84936717 24.26555405 -49.91939178 31.35755584 -49 39 C-47.24280614 45.65537175 -42.5598001 50.16922526 -37 54 C-31.08484495 56.85756283 -24.87142898 56.96785725 -18.53125 55.3828125 C-11.83890442 52.79296644 -6.96762507 48.05409997 -3.8359375 41.6015625 C-1.70121471 34.95798598 -2.15057237 27.96665544 -5 21.625 C-8.35806591 15.70795469 -12.90003721 12.42081628 -19 9.625 C-29.33360219 7.47216621 -37.9110325 10.13932211 -45 18 Z " fill="#E86A19" transform="translate(276,113)"/>
<path d="M0 0 C6.29763663 4.72050828 10.26125614 10.29519129 12 18 C13.19117427 28.0877571 11.55233762 36.65209661 5.375 44.8125 C-0.56093268 51.02829055 -6.98378978 53.30703857 -15.5 53.625 C-24.01621022 53.30703857 -30.43906732 51.02829055 -36.375 44.8125 C-42.30724172 36.99272683 -44.20336282 28.68957769 -43 19 C-41.25823724 10.84637307 -37.75107208 4.95545015 -31 0 C-21.06923281 -5.8135337 -9.92916128 -5.82905986 0 0 Z M-25 14 C-27.81182862 17.35926428 -28.903261 20.21226813 -29.4375 24.5625 C-28.78019761 29.72701881 -27.3122195 32.81580191 -23.4375 36.3125 C-19.3840908 39.11870637 -16.97700537 39.41475045 -12 39 C-6.91356199 36.26114877 -3.82995973 33.4898792 -2 28 C-1.60385346 22.75105833 -2.13442683 19.44657906 -5 15 C-8.29193463 11.51995482 -11.25513888 10.19772537 -15.9453125 9.84375 C-19.65143345 10.12558429 -22.24113963 11.56242463 -25 14 Z " fill="#000000" transform="translate(389,298)"/>
<path d="M0 0 C0.66 0.66 1.32 1.32 2 2 C1.85782244 5.8387941 1.47595385 8.29488319 -0.6875 11.5 C-3 13 -3 13 -6 12.875 C-9 12 -9 12 -10.875 10.9375 C-14.85465123 9.18177152 -18.98631835 9.23849076 -23.00390625 10.7578125 C-26.58718514 12.65792281 -28.56249432 14.24349931 -30 18 C-30.70031352 22.93476739 -30.51450496 26.91162413 -28.375 31.4375 C-25.04169101 35.03396496 -22.37697094 36.83987471 -17.390625 37.17578125 C-14.91863869 37.18625577 -12.46815239 37.13169983 -10 37 C-10 34.36 -10 31.72 -10 29 C-10.71027344 29.01160156 -11.42054688 29.02320313 -12.15234375 29.03515625 C-13.07144531 29.04417969 -13.99054688 29.05320312 -14.9375 29.0625 C-15.85402344 29.07410156 -16.77054687 29.08570313 -17.71484375 29.09765625 C-20 29 -20 29 -21 28 C-21.07179964 26.48071962 -21.08392007 24.95832518 -21.0625 23.4375 C-21.05347656 22.61121094 -21.04445313 21.78492188 -21.03515625 20.93359375 C-21.02355469 20.29550781 -21.01195312 19.65742188 -21 19 C-17.22993446 16.54211311 -13.40950797 16.66768684 -9.0625 16.6875 C-8.35931641 16.67138672 -7.65613281 16.65527344 -6.93164062 16.63867188 C-3.81937157 16.63575503 -1.03191649 16.99130696 1.96875 17.80859375 C5.50902755 21.62800856 4.67586305 26.38702592 4.5625 31.375 C4.57345703 32.4165625 4.58441406 33.458125 4.59570312 34.53125 C4.55180755 39.10809538 4.51667284 42.12831939 2.15234375 46.1171875 C-4.62988909 52.05010261 -11.81545577 52.34795147 -20.4453125 52.28515625 C-27.2772462 51.73710003 -33.15077954 48.84922046 -38 44 C-43.94069121 36.6335429 -46.36290499 30.01446708 -45.9375 20.5625 C-44.85124489 11.73667725 -41.07412432 4.90652359 -34.08203125 -0.59375 C-23.62998395 -7.65329414 -10.33199825 -7.04454426 0 0 Z " fill="#000000" transform="translate(338,299)"/>
<path d="M0 0 C2.31640625 1.95703125 2.31640625 1.95703125 4 4 C4.17750568 8.17138357 3.1541414 9.79718237 0.625 13.125 C-1.00390625 14.37109375 -1.00390625 14.37109375 -3 15 C-5.87883214 14.25693204 -8.45377909 13.1267596 -11.18359375 11.953125 C-15.53520553 10.48045749 -18.88501061 11.08297683 -23 13 C-26.19985305 15.5998806 -27.69883332 17.09649995 -29 21 C-29.38438818 25.68953585 -29.45895659 28.06443464 -27.375 32.3125 C-24.6422424 35.40483097 -22.93682468 36.73724492 -19 38 C-14.11757889 38.050947 -10.32032096 37.24083037 -6 35 C-3.5 34.5625 -3.5 34.5625 -1 35 C1.41012954 37.34318149 2.75141667 39.41509806 4.0625 42.5 C4 45 4 45 2.0625 47.625 C-5.33652105 53.36301632 -12.86580106 54.00868455 -22 53 C-25.30014252 52.07416816 -28.05778577 50.73989486 -31 49 C-31.93779297 48.52626953 -31.93779297 48.52626953 -32.89453125 48.04296875 C-38.98900058 44.49781992 -41.90738331 38.54404865 -44 32 C-45.14991922 23.45899694 -44.87711019 15.32366054 -40 8 C-29.72334127 -4.56036067 -14.22163657 -7.25639409 0 0 Z " fill="#000000" transform="translate(143,298)"/>
<path d="M0 0 C0.66 -0.66 1.32 -1.32 2 -2 C9.30434783 -2.46376812 9.30434783 -2.46376812 13 0 C13.2917727 2.74285469 13.39605798 5.25657539 13.36328125 8 C13.36402901 9.18722656 13.36402901 9.18722656 13.36479187 10.3984375 C13.36244989 12.07294219 13.35271402 13.74745029 13.33618164 15.421875 C13.31259275 17.9899024 13.31561887 20.55689186 13.32226562 23.125 C13.31668888 24.75000621 13.30957902 26.37500804 13.30078125 28 C13.30214836 29.15628906 13.30214836 29.15628906 13.30354309 30.3359375 C13.23102547 35.76897453 13.23102547 35.76897453 11 38 C8.6875 38.265625 8.6875 38.265625 6 38.25 C4.6696875 38.25773437 4.6696875 38.25773437 3.3125 38.265625 C1 38 1 38 -1 36 C-1.99 36.66 -2.98 37.32 -4 38 C-9.60279968 38.84237897 -14.68441031 38.5081031 -19.46484375 35.34375 C-23.74881489 31.59391267 -26.72672618 27.06425071 -27.23828125 21.328125 C-27.40185591 14.54408137 -27.21742131 10.40695039 -23 5 C-15.93178395 -2.06821605 -9.69090249 -3.78181561 0 0 Z M-11.25 13.6875 C-13.18010547 15.86904316 -13.18010547 15.86904316 -13.4375 18.5625 C-13.14003166 20.99444204 -13.14003166 20.99444204 -11.9375 22.875 C-8.79705307 24.69848531 -6.4014687 23.8658284 -3 23 C-0.72328262 20.25158089 -0.72328262 20.25158089 -1.1875 17.5 C-2.06622828 14.79622066 -2.68451988 13.62941194 -5 12 C-8.93541667 11.6 -8.93541667 11.6 -11.25 13.6875 Z " fill="#000000" transform="translate(177,312)"/>
<path d="M0 0 C5.44450851 4.79441795 7.72804417 9.62774771 8.3125 16.875 C8.11404529 22.35861702 6.93928511 26.86342832 3.1953125 30.98828125 C-2.94245319 36.58175451 -7.90634127 38.50579416 -16.21875 38.3046875 C-21.50253898 37.72584545 -25.2121725 35.97519807 -28.7890625 32.0234375 C-34.19237752 24.98120228 -34.59591232 19.88451102 -34 11 C-31.78391773 4.4683891 -27.07557264 0.11567827 -21 -3 C-13.69598755 -5.77048748 -6.38501787 -4.02456764 0 0 Z M-17.6875 11.625 C-20.25307173 13.82146475 -20.25307173 13.82146475 -20.5625 17 C-20.18560655 20.04601142 -20.18560655 20.04601142 -18.4375 22.4375 C-15.98253455 24.31201155 -15.98253455 24.31201155 -12.4375 24.0625 C-8.93263754 23.28833299 -8.93263754 23.28833299 -6.9375 20.8125 C-5.74353984 17.97481195 -5.74353984 17.97481195 -6.5625 14.8125 C-7.75090447 11.95208304 -7.75090447 11.95208304 -9.9375 10.625 C-13.29026821 9.60900963 -14.6704282 9.80072403 -17.6875 11.625 Z " fill="#000000" transform="translate(282,313)"/>
<path d="M0 0 C0.680625 -0.00515625 1.36125 -0.0103125 2.0625 -0.015625 C4 0.25 4 0.25 7 2.25 C7.5671875 1.92773438 8.134375 1.60546875 8.71875 1.2734375 C12.43209379 -0.39248043 16.00979759 -0.32733698 20 0.25 C22.625 1.8125 22.625 1.8125 24 4.25 C24 8.12812592 23.49435332 10.45903469 21.4375 13.75 C17.76185676 16.0119343 15.21400769 14.91889011 11 14.25 C10.01 14.91 9.02 15.57 8 16.25 C7.52480674 18.42163342 7.52480674 18.42163342 7.55859375 20.93359375 C7.53216797 21.86107422 7.50574219 22.78855469 7.47851562 23.74414062 C7.46498047 24.71544922 7.45144531 25.68675781 7.4375 26.6875 C7.40304331 28.60303662 7.36042627 30.51844854 7.30859375 32.43359375 C7.29626709 33.28493896 7.28394043 34.13628418 7.27124023 35.01342773 C7 37.25 7 37.25 5 40.25 C2.43359375 40.578125 2.43359375 40.578125 -0.5625 40.5 C-1.55378906 40.48453125 -2.54507813 40.4690625 -3.56640625 40.453125 C-6 40.25 -6 40.25 -7 39.25 C-7.12579806 36.53447723 -7.18865406 33.84575573 -7.203125 31.12890625 C-7.20882507 30.31381088 -7.21452515 29.49871552 -7.22039795 28.65892029 C-7.22986127 26.93139958 -7.2363872 25.20386071 -7.24023438 23.47631836 C-7.24994687 20.82699274 -7.28095964 18.17844042 -7.3125 15.52929688 C-7.31902903 13.85417129 -7.32427989 12.17904014 -7.328125 10.50390625 C-7.3404718 9.70803604 -7.3528186 8.91216583 -7.36553955 8.09217834 C-7.35644531 5.85766602 -7.35644531 5.85766602 -7 2.25 C-4.00261059 0.25174039 -3.36652492 -0.02550398 0 0 Z " fill="#000000" transform="translate(222,309.75)"/>
<path d="M0 0 C3.21427523 1.76972741 4.54212315 3.39774028 5.875 6.8125 C7.04933607 11.44883982 6.85777714 15.24343881 4.75 19.5625 C-0.16136249 25.33335092 -0.16136249 25.33335092 -4.421875 25.80078125 C-8.76240532 25.92573591 -11.67986844 25.82165071 -15.6875 24 C-18.85721137 20.9849087 -20.0564514 18.77502445 -21.25 14.5625 C-21.29680044 10.38946106 -20.87362342 5.90165708 -18.25 2.5625 C-12.1168794 -1.7667616 -7.18941629 -2.85210847 0 0 Z " fill="#E76B1B" transform="translate(257.25,133.4375)"/>
<path d="M0 0 C0.99 0.66 1.98 1.32 3 2 C3.2917727 4.74285469 3.39605798 7.25657539 3.36328125 10 C3.36377975 10.79148437 3.36427826 11.58296875 3.36479187 12.3984375 C3.36244989 14.07294219 3.35271402 15.74745029 3.33618164 17.421875 C3.31259275 19.9899024 3.31561887 22.55689186 3.32226562 25.125 C3.31668888 26.75000621 3.30957902 28.37500804 3.30078125 30 C3.30214836 31.15628906 3.30214836 31.15628906 3.30354309 32.3359375 C3.23102547 37.76897453 3.23102547 37.76897453 1 40 C-1.3125 40.30078125 -1.3125 40.30078125 -4 40.3125 C-4.886875 40.32925781 -5.77375 40.34601563 -6.6875 40.36328125 C-7.450625 40.24339844 -8.21375 40.12351562 -9 40 C-11.39131157 36.41303265 -11.3226333 33.77623424 -11.3359375 29.62890625 C-11.3425943 28.9101683 -11.3492511 28.19143036 -11.35610962 27.45091248 C-11.36622573 25.93206336 -11.37092696 24.41316988 -11.37060547 22.89428711 C-11.3749784 20.57396034 -11.41130317 18.25553706 -11.44921875 15.93554688 C-11.45508732 14.45833983 -11.45905644 12.98112376 -11.4609375 11.50390625 C-11.48249405 10.46623863 -11.48249405 10.46623863 -11.50448608 9.40760803 C-11.47287491 6.06476544 -11.20173147 4.27314735 -9.19384766 1.55444336 C-6.0451751 -0.67653796 -3.7650054 -0.41072786 0 0 Z " fill="#000000" transform="translate(206,310)"/>
<path d="M0 0 C5.44876003 1.72066106 10.71169451 3.84705349 16 6 C16 6.33 16 6.66 16 7 C13.69 7 11.38 7 9 7 C9 6.34 9 5.68 9 5 C7.68 5 6.36 5 5 5 C4.31292445 7.49064888 4 9.37886292 4 12 C6.64 12 9.28 12 12 12 C12 12.99 12 13.98 12 15 C13.65 15 15.3 15 17 15 C17 15.66 17 16.32 17 17 C13.7 16.34 10.4 15.68 7 15 C3.04 19.62 -0.92 24.24 -5 29 C-6 25 -6 25 -5.0625 22.75 C-4.711875 22.1725 -4.36125 21.595 -4 21 C-2.68 21 -1.36 21 0 21 C-0.495 18.525 -0.495 18.525 -1 16 C-1.66 16 -2.32 16 -3 16 C-3.33 16.99 -3.66 17.98 -4 19 C-4.639375 19.226875 -5.27875 19.45375 -5.9375 19.6875 C-8.14928279 20.78231415 -8.14928279 20.78231415 -8.56640625 22.83203125 C-8.85466749 24.27333743 -9.14243073 25.71474329 -9.4296875 27.15625 C-10 29 -10 29 -12.125 30.5 C-13.053125 30.7475 -13.053125 30.7475 -14 31 C-15.32 30.01 -16.64 29.02 -18 28 C-16.62608764 26.31161436 -15.25080839 24.62434099 -13.875 22.9375 C-13.0603125 21.93460938 -12.245625 20.93171875 -11.40625 19.8984375 C-9.45499515 17.54806234 -7.44871701 15.30250564 -5.375 13.0625 C-4.59125 12.051875 -3.8075 11.04125 -3 10 C-3.31785842 8.66289308 -3.65150324 7.3294506 -4 6 C-2.0625 2.75 -2.0625 2.75 0 0 Z " fill="#E36C1E" transform="translate(269,206)"/>
<path d="M0 0 C5.84809389 0.5316449 10.14310821 3.90350927 13.9375 8.1875 C15 10 15 10 15 12 C16.32 11.34 17.64 10.68 19 10 C18.67 11.65 18.34 13.3 18 15 C16.02 14.67 14.04 14.34 12 14 C12.7734375 15.36125 12.7734375 15.36125 13.5625 16.75 C15.1329138 20.30050076 14.96677106 20.56259177 14 24 C14.87050779 27.19623648 14.87050779 27.19623648 16 30 C12.71273259 26.9480627 10.36008255 23.70440582 7.9375 19.9375 C4.11676231 13.58268555 4.11676231 13.58268555 -2 10 C-4.58330229 9.84677641 -7.14492239 9.74293111 -9.73046875 9.68359375 C-10.48088943 9.66281265 -11.23131012 9.64203156 -12.00447083 9.62062073 C-14.39872184 9.55530074 -16.79308139 9.49632208 -19.1875 9.4375 C-20.81186013 9.39429807 -22.43620933 9.35068324 -24.06054688 9.30664062 C-28.04025371 9.19963737 -32.02006958 9.09832063 -36 9 C-36 8.67 -36 8.34 -36 8 C-23.79 8 -11.58 8 1 8 C1.33 7.01 1.66 6.02 2 5 C3.65 4.67 5.3 4.34 7 4 C6.01 4 5.02 4 4 4 C4 3.34 4 2.68 4 2 C2.68 1.34 1.36 0.68 0 0 Z " fill="#EA6A1A" transform="translate(232,225)"/>
<path d="M0 0 C2.3125 -0.36328125 2.3125 -0.36328125 5 -0.3125 C5.886875 -0.30863281 6.77375 -0.30476563 7.6875 -0.30078125 C10 0 10 0 12 2 C12.1953125 4.3828125 12.1953125 4.3828125 12.125 7.125 C12.10695312 8.03507812 12.08890625 8.94515625 12.0703125 9.8828125 C12.04710937 10.58148438 12.02390625 11.28015625 12 12 C8.44493789 13.91544295 6.08352528 14.51044066 2 14 C-0.375 12.4375 -0.375 12.4375 -2 10 C-2.46337203 5.59796571 -2.48038907 3.7205836 0 0 Z " fill="#010101" transform="translate(197,292)"/>
<path d="M0 0 C0.83848804 1.45537568 1.67063934 2.91440373 2.5 4.375 C3.19609375 5.59316406 3.19609375 5.59316406 3.90625 6.8359375 C5 9 5 9 5 11 C4.09636719 11.06058594 3.19273437 11.12117187 2.26171875 11.18359375 C1.08222656 11.26738281 -0.09726563 11.35117188 -1.3125 11.4375 C-3.07013672 11.55931641 -3.07013672 11.55931641 -4.86328125 11.68359375 C-8.02590958 11.8867371 -8.02590958 11.8867371 -11 13 C-11 12.34 -11 11.68 -11 11 C-10.34 11 -9.68 11 -9 11 C-9 10.34 -9 9.68 -9 9 C-7.68 8.67 -6.36 8.34 -5 8 C-4.67 6.02 -4.34 4.04 -4 2 C-5.32 1.67 -6.64 1.34 -8 1 C-8.33 1.99 -8.66 2.98 -9 4 C-10.65 3.34 -12.3 2.68 -14 2 C-14 2.66 -14 3.32 -14 4 C-17 5 -20 6 -23 7 C-23.12117187 7.99902344 -23.24234375 8.99804688 -23.3671875 10.02734375 C-23.53476563 11.31769531 -23.70234375 12.60804688 -23.875 13.9375 C-24.03742188 15.22527344 -24.19984375 16.51304687 -24.3671875 17.83984375 C-24.57601562 18.88269531 -24.78484375 19.92554688 -25 21 C-25.66 21.33 -26.32 21.66 -27 22 C-26.56130078 8.64160886 -26.56130078 8.64160886 -22 3 C-15.55246552 -1.44163486 -7.51777871 -0.26123555 0 0 Z " fill="#DB702C" transform="translate(216,178)"/>
<path d="M0 0 C5.02692063 0.45699278 8.14896261 2.99241748 12 6 C11 8 11 8 8 9.0625 C7.01 9.371875 6.02 9.68125 5 10 C4.67 10.33 4.34 10.66 4 11 C4.66 12.32 5.32 13.64 6 15 C5.236875 14.360625 4.47375 13.72125 3.6875 13.0625 C-0.62987874 9.74916283 -4.50042731 9.80362132 -9.73046875 9.68359375 C-10.48088943 9.66281265 -11.23131012 9.64203156 -12.00447083 9.62062073 C-14.39872184 9.55530074 -16.79308139 9.49632208 -19.1875 9.4375 C-20.81186013 9.39429807 -22.43620933 9.35068324 -24.06054688 9.30664062 C-28.04025371 9.19963737 -32.02006958 9.09832063 -36 9 C-36 8.67 -36 8.34 -36 8 C-23.79 8 -11.58 8 1 8 C1.33 7.01 1.66 6.02 2 5 C3.65 4.67 5.3 4.34 7 4 C6.01 4 5.02 4 4 4 C4 3.34 4 2.68 4 2 C2.68 1.34 1.36 0.68 0 0 Z " fill="#DA702D" transform="translate(232,225)"/>
<path d="M0 0 C3.08089673 2.77280706 4.68775452 5.06326356 6 9 C3.36 11.31 0.72 13.62 -2 16 C-4 13 -4 13 -3.625 10.8125 C-3.41875 10.214375 -3.2125 9.61625 -3 9 C-2.34 9 -1.68 9 -1 9 C-0.67 8.34 -0.34 7.68 0 7 C0.66 7.33 1.32 7.66 2 8 C2 6.68 2 5.36 2 4 C1.44570312 4.30035156 0.89140625 4.60070312 0.3203125 4.91015625 C-0.40414062 5.29042969 -1.12859375 5.67070312 -1.875 6.0625 C-2.95394531 6.63677734 -2.95394531 6.63677734 -4.0546875 7.22265625 C-4.69664062 7.47917969 -5.33859375 7.73570312 -6 8 C-6.66 7.67 -7.32 7.34 -8 7 C-5.36 4.69 -2.72 2.38 0 0 Z " fill="#E56B21" transform="translate(227,201)"/>
<path d="M0 0 C10.36451269 1.6716956 17.98072774 6.24185698 25 14 C24.67 14.66 24.34 15.32 24 16 C23.443125 15.401875 22.88625 14.80375 22.3125 14.1875 C18.87820519 10.93884274 16.49403354 9.08456794 11.6875 8.8125 C10.800625 8.874375 9.91375 8.93625 9 9 C8.67 7.68 8.34 6.36 8 5 C7.236875 4.9175 6.47375 4.835 5.6875 4.75 C2.47626739 3.85384206 1.70625501 2.78388975 0 0 Z " fill="#DE6D26" transform="translate(257,105)"/>
<path d="M0 0 C5.44876003 1.72066106 10.71169451 3.84705349 16 6 C16 6.33 16 6.66 16 7 C13.69 7 11.38 7 9 7 C9 6.34 9 5.68 9 5 C7.68 5 6.36 5 5 5 C4.67 6.32 4.34 7.64 4 9 C3.01 9 2.02 9 1 9 C1 8.34 1 7.68 1 7 C1.66 7 2.32 7 3 7 C3 5.68 3 4.36 3 3 C2.34 3 1.68 3 1 3 C0.01 4.98 -0.98 6.96 -2 9 C-2.66 9 -3.32 9 -4 9 C-3.46930939 5.17902761 -2.50298434 2.93828597 0 0 Z " fill="#DF6E26" transform="translate(269,206)"/>
<path d="M0 0 C0.66 0 1.32 0 2 0 C6 5.41176471 6 5.41176471 6 8 C5.34 8 4.68 8 4 8 C4 8.66 4 9.32 4 10 C3.34 10 2.68 10 2 10 C0.66666667 8.66666667 -0.66666667 7.33333333 -2 6 C-1.01 6 -0.02 6 1 6 C1 5.34 1 4.68 1 4 C0.34 4 -0.32 4 -1 4 C-0.67 2.68 -0.34 1.36 0 0 Z M-9 2 C-6 3 -6 3 -5 4.9375 C-4.67 5.618125 -4.34 6.29875 -4 7 C-3.01 7.66 -2.02 8.32 -1 9 C-1.99 10.485 -1.99 10.485 -3 12 C-4.00276773 10.52270825 -5.00214454 9.04311423 -6 7.5625 C-6.556875 6.73878906 -7.11375 5.91507812 -7.6875 5.06640625 C-9 3 -9 3 -9 2 Z " fill="#DC6D25" transform="translate(257,254)"/>
<path d="M0 0 C2.92540704 0.62687294 5.4835249 1.35127493 8 3 C8.96569331 5.49470772 9 7.29745539 9 10 C9.31088368 11.67099977 9.64080332 13.33871537 10 15 C5.84710903 11.32628876 2.76621742 6.77633541 0 2 C0 1.34 0 0.68 0 0 Z " fill="#E06C21" transform="translate(238,240)"/>
<path d="M0 0 C0.99 0.33 1.98 0.66 3 1 C1.68 2.65 0.36 4.3 -1 6 C0.98 6.66 2.96 7.32 5 8 C1.93882432 10.62386487 1.26826873 11 -3 11 C-3.80967438 8.08517222 -4.21845993 6.53886783 -3.0625 3.6875 C-2.711875 3.130625 -2.36125 2.57375 -2 2 C-1.34 2 -0.68 2 0 2 C0 1.34 0 0.68 0 0 Z " fill="#E26D21" transform="translate(260,235)"/>
<path d="M0 0 C1 3 1 3 -0.125 5.5 C-2.60131787 8.80175716 -5.37672347 10.18836174 -9 12 C-10.99960012 12.039992 -13.00047242 12.04346799 -15 12 C-12 10 -12 10 -8.625 8.25 C-4.80387193 6.10822121 -2.61379895 3.48506527 0 0 Z " fill="#DA6E29" transform="translate(270,157)"/>
<path d="M0 0 C0 1.32 0 2.64 0 4 C-1.65 4.33 -3.3 4.66 -5 5 C-5 7.64 -5 10.28 -5 13 C-7 12 -7 12 -7.703125 10.22265625 C-7.88359375 9.50980469 -8.0640625 8.79695312 -8.25 8.0625 C-8.44078125 7.35222656 -8.6315625 6.64195312 -8.828125 5.91015625 C-8.88484375 5.27980469 -8.9415625 4.64945313 -9 4 C-6.43425105 1.43425105 -3.68548192 0 0 0 Z " fill="#E86A16" transform="translate(229,205)"/>
<path d="M0 0 C2 2 2 2 2 6 C2.99 6.33 3.98 6.66 5 7 C5 7.66 5 8.32 5 9 C1.31912647 11.45391569 -1.44355588 11.22802759 -5.6875 11.125 C-6.7403418 11.11146484 -6.7403418 11.11146484 -7.81445312 11.09765625 C-9.54311525 11.07413704 -11.27160145 11.03826713 -13 11 C-13 10.34 -13 9.68 -13 9 C-6.07 9.495 -6.07 9.495 1 10 C0.67 6.7 0.34 3.4 0 0 Z " fill="#DD702D" transform="translate(299,204)"/>
<path d="M0 0 C3.08089673 2.77280706 4.68775452 5.06326356 6 9 C5.01 9.495 5.01 9.495 4 10 C4 9.01 4 8.02 4 7 C3.34 7 2.68 7 2 7 C2 6.01 2 5.02 2 4 C1.44570312 4.30035156 0.89140625 4.60070312 0.3203125 4.91015625 C-0.40414062 5.29042969 -1.12859375 5.67070312 -1.875 6.0625 C-2.95394531 6.63677734 -2.95394531 6.63677734 -4.0546875 7.22265625 C-4.69664062 7.47917969 -5.33859375 7.73570312 -6 8 C-6.66 7.67 -7.32 7.34 -8 7 C-5.36 4.69 -2.72 2.38 0 0 Z " fill="#D67232" transform="translate(227,201)"/>
<path d="M0 0 C1.32 0.66 2.64 1.32 4 2 C1.36 4.97 -1.28 7.94 -4 11 C-5 7 -5 7 -4.0625 4.75 C-3.5365625 3.88375 -3.5365625 3.88375 -3 3 C-1.68 3 -0.36 3 1 3 C0.67 2.01 0.34 1.02 0 0 Z " fill="#D96E29" transform="translate(268,224)"/>
<path d="M0 0 C0.99 0.33 1.98 0.66 3 1 C3.33 1.99 3.66 2.98 4 4 C2.4375 5.1875 2.4375 5.1875 0 6 C-3.75 4.625 -3.75 4.625 -7 3 C-6.401875 2.87625 -5.80375 2.7525 -5.1875 2.625 C-2.73768652 2.04524015 -2.73768652 2.04524015 0 0 Z " fill="#E96816" transform="translate(241,232)"/>
<path d="M0 0 C0.5625 1.9375 0.5625 1.9375 1 4 C0.67 4.33 0.34 4.66 0 5 C2.64 5.33 5.28 5.66 8 6 C8 6.66 8 7.32 8 8 C4.37 8 0.74 8 -3 8 C-1.125 2.25 -1.125 2.25 0 0 Z " fill="#D47237" transform="translate(282,181)"/>
<path d="M0 0 C0.66 0.33 1.32 0.66 2 1 C1.66226563 1.47050781 1.32453125 1.94101563 0.9765625 2.42578125 C0.30753906 3.35970703 0.30753906 3.35970703 -0.375 4.3125 C-0.81585938 4.92738281 -1.25671875 5.54226562 -1.7109375 6.17578125 C-2.83410907 7.7652392 -3.92041447 9.38062171 -5 11 C-5 9.35 -5 7.7 -5 6 C-5.66 6 -6.32 6 -7 6 C-7 5.01 -7 4.02 -7 3 C-5.35 3 -3.7 3 -2 3 C-2 2.34 -2 1.68 -2 1 C-1.34 0.67 -0.68 0.34 0 0 Z " fill="#DE6C27" transform="translate(232,128)"/>
<path d="M0 0 C1.98 0.66 3.96 1.32 6 2 C3 3 3 3 1 3 C0.01 4.98 -0.98 6.96 -2 9 C-2.66 9 -3.32 9 -4 9 C-3.46930939 5.17902761 -2.50298434 2.93828597 0 0 Z " fill="#D67438" transform="translate(269,206)"/>
<path d="M0 0 C5.26053037 -0.31563182 8.44573816 0.33409063 13 3 C9.66011432 4.11329523 7.3699643 4.01098929 4 3 C1.6875 1.4375 1.6875 1.4375 0 0 Z " fill="#DE6F2C" transform="translate(246,132)"/>
<path d="M0 0 C0.33 0 0.66 0 1 0 C0.67 2.31 0.34 4.62 0 7 C0.99 6.67 1.98 6.34 3 6 C2.67 8.31 2.34 10.62 2 13 C1.34 12.67 0.68 12.34 0 12 C-1.46125461 3.89667897 -1.46125461 3.89667897 0 0 Z " fill="#DB6F2D" transform="translate(237,140)"/>
<path d="M0 0 C0.66 0 1.32 0 2 0 C0.52307692 5.66153846 0.52307692 5.66153846 -2.125 7.375 C-3.053125 7.684375 -3.053125 7.684375 -4 8 C-4.33 7.01 -4.66 6.02 -5 5 C-3.625 3.5 -3.625 3.5 -2 2 C-1.34 2 -0.68 2 0 2 C0 1.34 0 0.68 0 0 Z " fill="#D8712C" transform="translate(259,210)"/>
<path d="M0 0 C0.33 0.66 0.66 1.32 1 2 C0.00390625 4.1640625 0.00390625 4.1640625 -1.4375 6.625 C-1.91058594 7.44226563 -2.38367188 8.25953125 -2.87109375 9.1015625 C-3.24363281 9.72804687 -3.61617188 10.35453125 -4 11 C-4.33 11 -4.66 11 -5 11 C-5.33 8.69 -5.66 6.38 -6 4 C-5.38125 3.896875 -4.7625 3.79375 -4.125 3.6875 C-1.63473516 3.12474627 -1.63473516 3.12474627 0 0 Z " fill="#D76F32" transform="translate(271,191)"/>
<path d="M0 0 C2.96052484 3.36423277 3.92289822 6.69159287 5 11 C4.34 10.67 3.68 10.34 3 10 C3 9.34 3 8.68 3 8 C2.01 7.67 1.02 7.34 0 7 C0 4.69 0 2.38 0 0 Z " fill="#DC6D2A" transform="translate(284,124)"/>
<path d="M0 0 C2.92879371 0.62759865 5.36095629 1.58622659 8 3 C5.04335481 4.4783226 2.25770263 4.06032783 -1 4 C-0.67 2.68 -0.34 1.36 0 0 Z " fill="#DD6E2C" transform="translate(307,275)"/>
<path d="M0 0 C0.33 0 0.66 0 1 0 C0.63076923 7.26153846 0.63076923 7.26153846 -2.5625 11 C-3.366875 11.66 -4.17125 12.32 -5 13 C-5 11.35 -5 9.7 -5 8 C-4.01 8.33 -3.02 8.66 -2 9 C-1.34 6.03 -0.68 3.06 0 0 Z " fill="#D27033" transform="translate(321,264)"/>
<path d="M0 0 C2.76223278 2.76223278 2.57856291 5.20706617 3 9 C1.02 9.99 1.02 9.99 -1 11 C-0.67 7.37 -0.34 3.74 0 0 Z " fill="#D76E2D" transform="translate(307,254)"/>
<path d="M0 0 C0.99 0.33 1.98 0.66 3 1 C3 1.66 3 2.32 3 3 C3.99 3 4.98 3 6 3 C6 3.99 6 4.98 6 6 C3.03 5.505 3.03 5.505 0 5 C0 3.35 0 1.7 0 0 Z " fill="#EA6B17" transform="translate(214,182)"/>
<path d="M0 0 C1.32 0 2.64 0 4 0 C4.33 0.99 4.66 1.98 5 3 C4.67 3.66 4.34 4.32 4 5 C2.68 5 1.36 5 0 5 C0 3.35 0 1.7 0 0 Z " fill="#EF6711" transform="translate(274,211)"/>
<path d="M0 0 C1.32 0 2.64 0 4 0 C4 1.65 4 3.3 4 5 C4.66 5 5.32 5 6 5 C5.67 6.32 5.34 7.64 5 9 C3.35 6.03 1.7 3.06 0 0 Z " fill="#D6712D" transform="translate(235,205)"/>
<path d="M0 0 C0.66 0 1.32 0 2 0 C1.54965877 1.62723299 1.08944646 3.25173664 0.625 4.875 C0.36976563 5.77992188 0.11453125 6.68484375 -0.1484375 7.6171875 C-1 10 -1 10 -3 12 C-3 8.98509443 -2.48047265 7.13135886 -1.5 4.3125 C-1.2215625 3.50425781 -0.943125 2.69601563 -0.65625 1.86328125 C-0.4396875 1.24839844 -0.223125 0.63351563 0 0 Z " fill="#D77233" transform="translate(287,154)"/>
<path d="M0 0 C0.66 0 1.32 0 2 0 C2.66 1.32 3.32 2.64 4 4 C3.34 4 2.68 4 2 4 C1.67 5.98 1.34 7.96 1 10 C0.67 10 0.34 10 0 10 C0 6.7 0 3.4 0 0 Z " fill="#D77235" transform="translate(273,140)"/>
<path d="M0 0 C1.32 0.33 2.64 0.66 4 1 C4.33 3.31 4.66 5.62 5 8 C2.74754119 5.31158141 1.11786042 3.35358125 0 0 Z " fill="#D76E2B" transform="translate(238,240)"/>
<path d="M0 0 C1.32 0.33 2.64 0.66 4 1 C4 3.64 4 6.28 4 9 C2 8 2 8 1.3671875 6.15234375 C1.20476562 5.42144531 1.04234375 4.69054687 0.875 3.9375 C0.70742187 3.20402344 0.53984375 2.47054687 0.3671875 1.71484375 C0.24601563 1.14894531 0.12484375 0.58304688 0 0 Z " fill="#EE6312" transform="translate(220,209)"/>
<path d="M0 0 C3.36591866 1.44253657 5.51047079 3.33264727 8 6 C7.67 6.66 7.34 7.32 7 8 C6.401875 7.360625 5.80375 6.72125 5.1875 6.0625 C3.09189663 3.79689611 3.09189663 3.79689611 0 3 C0 2.01 0 1.02 0 0 Z " fill="#CF6F37" transform="translate(274,113)"/>
<path d="M0 0 C1.485 0.99 1.485 0.99 3 2 C3 2.66 3 3.32 3 4 C4.32 3.34 5.64 2.68 7 2 C7 2.99 7 3.98 7 5 C5.02 5 3.04 5 1 5 C0.67 3.35 0.34 1.7 0 0 Z " fill="#D46F32" transform="translate(244,233)"/>
</svg>
